<svg width="66" height="23" viewBox="0 0 66 23" fill="none" xmlns="http://www.w3.org/2000/svg">
<path d="M3.73967 16.1156C4.01435 16.8445 4.39465 17.4678 4.88062 17.9854C5.36659 18.5031 5.94232 18.8992 6.60782 19.1739C7.27338 19.4486 7.99701 19.5859 8.77877 19.5859C9.53943 19.5859 10.2525 19.4432 10.918 19.158C11.5836 18.8727 12.1646 18.4713 12.6611 17.9537C13.1576 17.436 13.5432 16.8181 13.8179 16.0997C14.0926 15.3813 14.2299 14.5785 14.2299 13.6911V0H17.5575V22.1846H14.2616V20.1246C13.5221 20.9063 12.6505 21.5084 11.6469 21.9311C10.6433 22.3536 9.56054 22.5649 8.39848 22.5649C7.21525 22.5649 6.11133 22.3589 5.08658 21.9469C4.0619 21.5349 3.17446 20.9486 2.42446 20.188C1.67447 19.4273 1.08281 18.5136 0.649716 17.4466C0.216549 16.3796 0 15.1912 0 13.8812V0H3.32768V13.6911C3.32768 14.5785 3.46499 15.3866 3.73967 16.1156Z" fill="#898989"/>
<path d="M23.2009 0.132812V8.21432C23.9404 7.47485 24.7961 6.8886 25.768 6.45543C26.7399 6.02226 27.7963 5.80571 28.9372 5.80571C30.1204 5.80571 31.2295 6.02752 32.2649 6.47121C33.3001 6.91489 34.198 7.51706 34.9587 8.27772C35.7193 9.03837 36.3215 9.93627 36.7652 10.9715C37.2089 12.0069 37.4307 13.1055 37.4307 14.2676C37.4307 15.4296 37.2089 16.523 36.7652 17.5477C36.3215 18.5724 35.7193 19.4651 34.9587 20.2256C34.198 20.9863 33.3001 21.5884 32.2649 22.0321C31.2295 22.4758 30.1203 22.6976 28.9372 22.6976C27.7962 22.6976 26.7346 22.4811 25.7521 22.0479C24.7697 21.6148 23.9087 21.0285 23.1692 20.289V22.3173H20V0.132812H23.2009ZM23.5653 16.4543C23.8505 17.1305 24.2467 17.7221 24.7538 18.2291C25.2609 18.7362 25.8525 19.1377 26.5286 19.4335C27.2047 19.7293 27.9336 19.8772 28.7154 19.8772C29.476 19.8772 30.1943 19.7293 30.8704 19.4335C31.5465 19.1377 32.1328 18.7363 32.6294 18.2291C33.1259 17.7221 33.522 17.1305 33.8178 16.4543C34.1136 15.7782 34.2615 15.0494 34.2615 14.2676C34.2615 13.4858 34.1136 12.7516 33.8178 12.0649C33.522 11.3783 33.1259 10.7814 32.6294 10.2743C32.1328 9.76733 31.5466 9.37112 30.8704 9.08592C30.1943 8.80072 29.476 8.65801 28.7154 8.65801C27.9548 8.65801 27.2364 8.80065 26.5603 9.08592C25.8843 9.37119 25.2927 9.76733 24.7855 10.2743C24.2785 10.7814 23.877 11.3783 23.5813 12.0649C23.2855 12.7516 23.1376 13.4858 23.1376 14.2676C23.1375 15.0494 23.2801 15.7782 23.5653 16.4543Z" fill="#898989"/>
<path d="M39.6337 10.4978C40.0562 9.48362 40.6374 8.59099 41.3768 7.81982C42.1162 7.04864 42.9931 6.44121 44.0073 5.99753C45.0214 5.55384 46.1201 5.33203 47.3033 5.33203C48.4653 5.33203 49.5429 5.54332 50.5359 5.96583C51.5289 6.38841 52.3846 6.97473 53.1029 7.7248C53.8213 8.47479 54.3813 9.36223 54.7826 10.3869C55.1841 11.4117 55.3848 12.5262 55.3848 13.7305V14.7764H42.2325C42.3382 15.4313 42.5495 16.0388 42.8664 16.5986C43.1834 17.1585 43.5794 17.6444 44.0548 18.0564C44.5302 18.4685 45.069 18.7907 45.6711 19.0231C46.2733 19.2554 46.9124 19.3717 47.5885 19.3717C49.5112 19.3717 51.0642 18.5794 52.2473 16.9947L54.5609 18.7061C53.758 19.7836 52.765 20.6288 51.5818 21.2415C50.3986 21.8542 49.0675 22.1606 47.5886 22.1606C46.3843 22.1606 45.2592 21.9492 44.2134 21.5267C43.1675 21.1042 42.259 20.5125 41.4879 19.7519C40.7167 18.9912 40.1093 18.0986 39.6656 17.0739C39.2219 16.0492 39 14.9346 39 13.7304C38.9999 12.5895 39.2112 11.5119 39.6337 10.4978ZM44.0865 9.2459C43.1885 9.99596 42.5917 10.9943 42.2959 12.2408H52.1522C51.8776 10.9943 51.2912 9.99596 50.3933 9.2459C49.4953 8.4959 48.4442 8.12087 47.2399 8.12087C46.0356 8.12087 44.9845 8.4959 44.0865 9.2459Z" fill="#898989"/>
<path d="M61.2151 9.42037C60.539 10.1598 60.201 11.1634 60.201 12.4312V21.622H57V5.45889H60.1692V7.45551C60.5707 6.80054 61.0936 6.28287 61.738 5.90258C62.3824 5.52221 63.1483 5.33203 64.0357 5.33203H65.1449V8.31112H63.8138C62.7575 8.31119 61.8912 8.68089 61.2151 9.42037Z" fill="#898989"/>
</svg>
